<?xml version="1.0" encoding="UTF-8"?>
<svg version="1.1" xmlns="http://www.w3.org/2000/svg" width="1024" height="1024">
<path d="M0 0 C337.92 0 675.84 0 1024 0 C1024 337.92 1024 675.84 1024 1024 C686.08 1024 348.16 1024 0 1024 C0 686.08 0 348.16 0 0 Z " fill="#171717" transform="translate(0,0)"/>
<path d="M0 0 C1.81872699 -0.00935994 1.81872699 -0.00935994 3.67419595 -0.01890898 C7.00471629 -0.03200748 10.3343211 -0.02742471 13.66478384 -0.0149641 C17.2702409 -0.00585437 20.8756222 -0.01991266 24.48106384 -0.03088379 C31.5310929 -0.04861249 38.58095102 -0.04485389 45.63098661 -0.03323323 C51.36571168 -0.02417468 57.10038907 -0.02298535 62.83511925 -0.02732849 C63.65344481 -0.02794142 64.47177038 -0.02855436 65.31489369 -0.02918586 C66.97769832 -0.03046486 68.64050295 -0.03176171 70.30330756 -0.03307623 C85.8739314 -0.04446604 101.44446085 -0.03139459 117.01506921 -0.00987476 C130.34946417 0.00798471 143.68371975 0.00489852 157.01811218 -0.0135498 C172.53094578 -0.03500222 188.04369669 -0.04335699 203.55654305 -0.03110075 C205.21391593 -0.02982666 206.87128882 -0.02856918 208.52866173 -0.02732849 C209.75159705 -0.02640284 209.75159705 -0.02640284 210.99923814 -0.02545848 C216.71959821 -0.02201792 222.43990545 -0.02780611 228.16025734 -0.0372467 C235.14246483 -0.04851724 242.12449267 -0.04532169 249.10667983 -0.02412373 C252.66306488 -0.01367916 256.21915147 -0.00937703 259.77553368 -0.02272034 C281.561033 -0.09764826 299.42648153 0.55140647 316.02323914 16.11730957 C327.70880294 27.95764905 331.69555888 40.18183261 331.65003967 56.58856201 C331.65457079 57.79157857 331.6591019 58.99459512 331.66377032 60.23406672 C331.67420811 63.55636093 331.67574575 66.8784379 331.67338157 70.20073295 C331.67297214 73.79050974 331.6840245 77.38025467 331.6934967 80.97001648 C331.71008056 87.99681091 331.71560507 95.02357177 331.71672146 102.05038413 C331.71767318 107.76472169 331.72178969 113.4790482 331.72812271 119.19338226 C331.74572806 135.4099056 331.7549627 151.62640251 331.75346176 167.84293547 C331.75338185 168.71642326 331.75330194 169.58991105 331.7532196 170.48986816 C331.75313784 171.36442778 331.75305608 172.2389874 331.75297184 173.14004883 C331.75215916 187.30933841 331.77129408 201.47852163 331.79949634 215.64778045 C331.82825439 230.21169905 331.84203502 244.77556583 331.84030879 259.33951354 C331.83964589 267.51002099 331.84509412 275.68041694 331.86666489 283.85089874 C331.88491519 290.80801931 331.88919255 297.76497783 331.87564604 304.72211203 C331.86913567 308.26798429 331.86892854 311.81354602 331.88635254 315.35938835 C331.90509253 319.21285847 331.89247831 323.06588009 331.87709045 326.91937256 C331.89252114 328.5805006 331.89252114 328.5805006 331.90826356 330.27518678 C331.7903303 343.69438626 326.53485689 357.79700474 317.31620789 367.75793457 C312.76090477 371.88071395 307.8258147 375.6433835 302.38261414 378.50793457 C301.17850356 379.14523451 301.17850356 379.14523451 299.95006752 379.7954092 C287.68417895 385.1511663 274.62874669 384.21512074 261.48616409 384.14689887 C257.82694142 384.13341559 254.16781884 384.1490007 250.50860596 384.16072083 C243.35821673 384.17901973 236.20810228 384.17063778 229.05772184 384.1526326 C223.24339861 384.1385614 217.42914957 384.13472347 211.61481094 384.13807487 C210.78478874 384.13855232 209.95476654 384.13902976 209.09959216 384.13952167 C207.41302539 384.14054808 205.72645864 384.14160344 204.03989191 384.14268743 C189.15472898 384.15123854 174.26969806 384.13463012 159.38456726 384.1048584 C144.96296141 384.07601445 130.54154562 384.06894445 116.11991882 384.08435059 C100.38698695 384.1011347 84.65414514 384.10512525 68.92121089 384.08764023 C67.24173587 384.08579597 65.56226084 384.08396125 63.8827858 384.08213615 C63.05660698 384.08122406 62.23042816 384.08031197 61.37921362 384.07937225 C55.57527153 384.07378138 49.77137361 384.07706036 43.96743393 384.08368111 C36.88966083 384.09143503 29.81207438 384.08458759 22.73433875 384.05950607 C19.1276872 384.04705974 15.52132554 384.04080484 11.91466331 384.05204773 C7.99579344 384.06403271 4.07741771 384.04473558 0.15858459 384.02259827 C-1.5314229 384.03495942 -1.5314229 384.03495942 -3.25557196 384.04757029 C-17.63087907 383.89827554 -30.22244676 378.1828481 -40.74238586 368.46887207 C-49.30018031 359.51884538 -55.72618617 347.03237465 -55.75160694 334.46054935 C-55.75606479 333.43648395 -55.76052263 332.41241854 -55.76511556 331.35732085 C-55.7649312 330.23390097 -55.76474683 329.11048109 -55.76455688 327.95301819 C-55.76823357 326.75820845 -55.77191026 325.56339871 -55.77569836 324.33238262 C-55.78481757 321.01444145 -55.78943324 317.69654971 -55.79208767 314.37860072 C-55.79599442 310.80033071 -55.80557266 307.22207497 -55.81430054 303.64381409 C-55.83405701 295.00018458 -55.84413123 286.35655391 -55.85302833 277.71290746 C-55.85741355 273.639643 -55.86277985 269.56637982 -55.8680172 265.49311638 C-55.88503051 251.94689612 -55.89952297 238.40067667 -55.90676594 224.85444736 C-55.90867575 221.33961041 -55.9105961 217.82477346 -55.91255188 214.30993652 C-55.91303562 213.43636782 -55.91351936 212.56279912 -55.91401776 211.66275864 C-55.9223116 197.52299482 -55.94763711 183.38331577 -55.98013256 169.24358893 C-56.01324379 154.71708842 -56.03121847 140.19063092 -56.03441018 125.66409248 C-56.03657178 117.51193005 -56.04526877 109.35989115 -56.07087135 101.20776558 C-56.09263415 94.26229631 -56.10060155 87.31698057 -56.09090457 80.37148107 C-56.0863756 76.8315819 -56.08816322 73.29199914 -56.10766602 69.75214386 C-56.1286872 65.90320129 -56.11826156 62.05468872 -56.10513306 58.20570374 C-56.1161023 57.10236035 -56.12707155 55.99901697 -56.1383732 54.86223894 C-56.0139889 39.67769783 -50.25468869 26.10768824 -39.80488586 15.13293457 C-28.38985121 4.38937254 -15.56192469 -0.1250487 0 0 Z " fill="#E2E4E4" transform="translate(373.6173858642578,320.4920654296875)"/>
<path d="M0 0 C1.73189575 -0.00945648 1.73189575 -0.00945648 3.4987793 -0.019104 C4.75086182 -0.01505554 6.00294434 -0.01100708 7.29296875 -0.00683594 C8.57276611 -0.00874939 9.85256348 -0.01066284 11.17114258 -0.01263428 C13.88139668 -0.01558475 16.59151902 -0.01129049 19.30175781 -0.00195312 C22.77896106 0.00944154 26.25585557 0.00288163 29.73304749 -0.00909805 C33.04471279 -0.01805519 36.35629466 -0.01178729 39.66796875 -0.00683594 C40.92005127 -0.0108844 42.17213379 -0.01493286 43.4621582 -0.019104 C44.61675537 -0.01279968 45.77135254 -0.00649536 46.9609375 0 C47.98082764 0.00159119 49.00071777 0.00318237 50.05151367 0.00482178 C52.48046875 0.25878906 52.48046875 0.25878906 54.48046875 2.25878906 C54.79931641 4.87255859 54.79931641 4.87255859 54.89453125 8.14160156 C54.93320312 9.30820312 54.971875 10.47480469 55.01171875 11.67675781 C55.058125 13.51173828 55.058125 13.51173828 55.10546875 15.38378906 C55.14414062 16.61484375 55.1828125 17.84589844 55.22265625 19.11425781 C55.31716865 22.16228282 55.40272369 25.21029769 55.48046875 28.25878906 C56.49367188 28.54882812 56.49367188 28.54882812 57.52734375 28.84472656 C58.419375 29.10511719 59.31140625 29.36550781 60.23046875 29.63378906 C61.1121875 29.88902344 61.99390625 30.14425781 62.90234375 30.40722656 C65.48046875 31.25878906 65.48046875 31.25878906 67.49609375 32.42285156 C70.25066033 33.58323985 71.67829562 33.22839347 74.48046875 32.25878906 C76.60722133 30.58402399 76.60722133 30.58402399 78.51171875 28.40722656 C79.24003906 27.63894531 79.96835937 26.87066406 80.71875 26.07910156 C82.23046117 24.44467808 83.73826209 22.80662949 85.2421875 21.16503906 C85.97050781 20.39933594 86.69882812 19.63363281 87.44921875 18.84472656 C88.10341797 18.13364746 88.75761719 17.42256836 89.43164062 16.68994141 C91.48046875 15.25878906 91.48046875 15.25878906 93.88867188 15.47787476 C96.7429156 16.3378649 97.92611787 17.21747606 99.99804688 19.32226562 C100.64221558 19.96673645 101.28638428 20.61120728 101.95007324 21.27520752 C102.63041626 21.97619568 103.31075928 22.67718384 104.01171875 23.39941406 C104.72525513 24.11861023 105.4387915 24.8378064 106.1739502 25.57879639 C108.45235726 27.87956764 110.71649056 30.19382687 112.98046875 32.50878906 C114.50428143 34.05267321 116.02901128 35.59565269 117.5546875 37.13769531 C120.3631585 39.97880152 123.16622061 42.82501204 125.96289062 45.67773438 C130.95880004 50.90012006 130.95880004 50.90012006 136.29296875 55.75878906 C138.0606423 57.99163986 137.80416365 59.47270994 137.48046875 62.25878906 C135.90405273 64.30761719 135.90405273 64.30761719 133.7265625 66.29003906 C132.95505859 67.01835937 132.18355469 67.74667969 131.38867188 68.49707031 C129.73941002 70.00682939 128.08836148 71.51463896 126.43554688 73.02050781 C125.66533203 73.74882812 124.89511719 74.47714844 124.1015625 75.22753906 C123.38411865 75.88173828 122.6666748 76.5359375 121.92749023 77.20996094 C120.23069528 79.16676311 120.23069528 79.16676311 120.59399414 81.64746094 C121.58072635 84.55412238 122.73741633 87.29280572 124.04296875 90.07128906 C124.49800781 91.04710937 124.95304688 92.02292969 125.421875 93.02832031 C125.77121094 93.764375 126.12054687 94.50042969 126.48046875 95.25878906 C127.5928894 95.28851807 127.5928894 95.28851807 128.7277832 95.31884766 C132.08320709 95.41401834 135.43800161 95.52373 138.79296875 95.63378906 C139.96021484 95.66472656 141.12746094 95.69566406 142.33007812 95.72753906 C143.44833984 95.76621094 144.56660156 95.80488281 145.71875 95.84472656 C147.26622925 95.89185791 147.26622925 95.89185791 148.8449707 95.93994141 C151.48046875 96.25878906 151.48046875 96.25878906 154.48046875 98.25878906 C154.86573792 100.77471924 154.86573792 100.77471924 154.88110352 103.99023438 C154.89444229 105.19198303 154.90778107 106.39373169 154.92152405 107.63189697 C154.92169777 109.58963043 154.92169777 109.58963043 154.921875 111.58691406 C154.93364637 112.93733149 154.94701001 114.2877359 154.9618988 115.63812256 C154.99815308 119.19996123 155.01829964 122.76168472 155.03344727 126.32366943 C155.05822809 132.01071001 155.098145 137.69749542 155.15534782 143.38430023 C155.17160188 145.36611335 155.17509004 147.34801794 155.17835999 149.32989502 C155.19363991 151.15143097 155.19363991 151.15143097 155.20922852 153.00976562 C155.21350357 154.07406799 155.21777863 155.13837036 155.22218323 156.23492432 C155.50194394 159.51020882 156.38732164 162.16989631 157.48046875 165.25878906 C158.99258708 180.50730864 156.34474497 194.78952974 146.56640625 206.93066406 C139.60672677 214.69839622 131.48717628 220.38023161 121.12670898 222.81103516 C113.83832998 224.56069296 110.18931696 227.83946641 105.29296875 233.38378906 C98.60486138 240.90218933 98.60486138 240.90218933 93.69921875 242.45800781 C90.48046875 242.25878906 90.48046875 242.25878906 88.6171875 240.95800781 C88.13894531 240.29414062 87.66070313 239.63027344 87.16796875 238.94628906 C86.59433594 238.21925781 86.02070312 237.49222656 85.4296875 236.74316406 C84.78644531 235.92332031 84.14320313 235.10347656 83.48046875 234.25878906 C81.84994761 232.37275815 80.18185396 230.51865022 78.48046875 228.69628906 C77.69671875 227.82875 76.91296875 226.96121094 76.10546875 226.06738281 C73.53371495 223.91525058 73.53371495 223.91525058 70 224.35253906 C66.90299415 225.14999229 64.0965776 226.05055521 61.16796875 227.32128906 C56.66552213 229.25878906 56.66552213 229.25878906 54.48046875 229.25878906 C54.50403442 230.46994385 54.50403442 230.46994385 54.52807617 231.70556641 C54.59026554 235.34823662 54.62940884 238.9907954 54.66796875 242.63378906 C54.69310547 243.90480469 54.71824219 245.17582031 54.74414062 246.48535156 C54.75864258 248.30292969 54.75864258 248.30292969 54.7734375 250.15722656 C54.79700317 251.83824463 54.79700317 251.83824463 54.82104492 253.55322266 C54.70865479 254.44605957 54.59626465 255.33889648 54.48046875 256.25878906 C51.11304783 258.50373635 49.98609732 258.51117644 46.046875 258.51757812 C44.93562256 258.52388245 43.82437012 258.53018677 42.67944336 258.53668213 C40.87938843 258.53060944 40.87938843 258.53060944 39.04296875 258.52441406 C37.19554077 258.52728424 37.19554077 258.52728424 35.31079102 258.5302124 C32.03707856 258.5319234 28.76355546 258.52386626 25.48986816 258.51269531 C23.48244176 258.5087929 21.47519022 258.51268125 19.46777344 258.51953125 C15.61775554 258.53186193 11.76799733 258.5303955 7.91796875 258.52441406 C6.71793213 258.52846252 5.51789551 258.53251099 4.28149414 258.53668213 C2.61461548 258.52722565 2.61461548 258.52722565 0.9140625 258.51757812 C-0.06506104 258.51598694 -1.04418457 258.51439575 -2.05297852 258.51275635 C-4.51953125 258.25878906 -4.51953125 258.25878906 -7.51953125 256.25878906 C-7.9519043 253.64501953 -7.9519043 253.64501953 -8.03125 250.37597656 C-8.06669922 249.209375 -8.10214844 248.04277344 -8.13867188 246.84082031 C-8.16123047 245.6175 -8.18378906 244.39417969 -8.20703125 243.13378906 C-8.24119141 241.90273438 -8.27535156 240.67167969 -8.31054688 239.40332031 C-8.39324689 236.35523397 -8.46232552 233.30744335 -8.51953125 230.25878906 C-10.3909782 229.43813838 -12.26687461 228.62763066 -14.14453125 227.82128906 C-15.71074219 227.14259766 -15.71074219 227.14259766 -17.30859375 226.45019531 C-20.51205923 225.26156153 -23.09915135 224.37503955 -26.51953125 224.25878906 C-28.89672625 225.77035233 -28.89672625 225.77035233 -30.8671875 228.13378906 C-31.63740234 228.95363281 -32.40761719 229.77347656 -33.20117188 230.61816406 C-33.98685547 231.48957031 -34.77253906 232.36097656 -35.58203125 233.25878906 C-37.14183055 234.98029817 -38.7155027 236.68936906 -40.3046875 238.38378906 C-40.9944165 239.14949219 -41.68414551 239.91519531 -42.39477539 240.70410156 C-44.51953125 242.25878906 -44.51953125 242.25878906 -47.10449219 242.16870117 C-50.89589777 240.74021668 -53.10166081 237.79854061 -55.70703125 234.82128906 C-60.72849985 229.23340038 -65.89654511 223.85386453 -71.28515625 218.62207031 C-72.47762412 217.4579302 -73.67008829 216.2937863 -74.86254883 215.12963867 C-76.65447102 213.38189611 -78.45062199 211.63989972 -80.26229858 209.91262817 C-81.9748377 208.27832194 -83.66821848 206.62610918 -85.359375 204.96972656 C-85.88053894 204.48268753 -86.40170288 203.9956485 -86.93865967 203.49385071 C-89.37557292 201.07581276 -90.46761719 199.55653697 -91.06298828 196.1418457 C-90.41692984 192.71448537 -89.57804249 191.69701235 -86.984375 189.41894531 C-85.89479492 188.41250977 -85.89479492 188.41250977 -84.78320312 187.38574219 C-83.23217054 186.00921705 -81.67747084 184.63681288 -80.11914062 183.26855469 C-78.04526188 181.34583866 -76.179795 179.54944622 -74.51953125 177.25878906 C-74.21364802 173.54096742 -74.21364802 173.54096742 -75.51953125 170.25878906 C-75.76832031 169.47890625 -76.01710938 168.69902344 -76.2734375 167.89550781 C-76.54027344 167.25226563 -76.80710937 166.60902344 -77.08203125 165.94628906 C-78.51953125 162.25878906 -78.51953125 162.25878906 -78.51953125 160.25878906 C-79.35726074 160.2692627 -80.19499023 160.27973633 -81.05810547 160.29052734 C-84.16291289 160.32458925 -87.26762517 160.34967817 -90.37255859 160.36865234 C-92.37864485 160.38367014 -94.38464449 160.40907887 -96.390625 160.43457031 C-97.64746094 160.44101562 -98.90429688 160.44746094 -100.19921875 160.45410156 C-101.36179199 160.4645752 -102.52436523 160.47504883 -103.72216797 160.48583984 C-106.51953125 160.25878906 -106.51953125 160.25878906 -108.51953125 158.25878906 C-108.76676941 155.79859924 -108.76676941 155.79859924 -108.76245117 152.66333008 C-108.7655278 151.49193985 -108.76860443 150.32054962 -108.77177429 149.11366272 C-108.76458878 147.84284348 -108.75740326 146.57202423 -108.75 145.26269531 C-108.74954178 143.96307358 -108.74908356 142.66345184 -108.74861145 141.32444763 C-108.74704621 138.57130605 -108.73875476 135.81829443 -108.7253418 133.06518555 C-108.70836858 129.53658572 -108.70452699 126.00812901 -108.70528698 122.47949314 C-108.70494953 119.11554138 -108.69610889 115.7516365 -108.6875 112.38769531 C-108.68638718 111.1189003 -108.68527435 109.85010529 -108.68412781 108.54286194 C-108.67774796 107.36831955 -108.6713681 106.19377716 -108.66479492 104.98364258 C-108.66098312 103.94820816 -108.65717133 102.91277374 -108.65324402 101.84596252 C-108.51953125 99.25878906 -108.51953125 99.25878906 -107.51953125 96.25878906 C-97.94953125 96.25878906 -88.37953125 96.25878906 -78.51953125 96.25878906 C-77.52953125 92.95878906 -76.53953125 89.65878906 -75.51953125 86.25878906 C-74.52953125 84.77378906 -74.52953125 84.77378906 -73.51953125 83.25878906 C-73.76240369 79.34854285 -76.06484459 77.22273149 -78.64453125 74.44628906 C-79.45019531 73.56972656 -80.25585938 72.69316406 -81.0859375 71.79003906 C-83.72213892 69.04805107 -86.45241899 66.44270441 -89.3046875 63.92675781 C-91.0309097 61.55667138 -90.85664731 60.14669448 -90.51953125 57.25878906 C-88.95869446 55.06303406 -88.95869446 55.06303406 -86.7434082 52.83569336 C-85.91867508 51.99519943 -85.09394196 51.15470551 -84.24421692 50.28874207 C-82.88969673 48.94940361 -82.88969673 48.94940361 -81.5078125 47.58300781 C-80.58743698 46.65784866 -79.66706146 45.73268951 -78.71879578 44.77949524 C-76.77050866 42.82384205 -74.81347903 40.877504 -72.84985352 38.93725586 C-70.33529897 36.45118908 -67.84386188 33.94334658 -65.35854816 31.42808819 C-62.98290519 29.03001861 -60.58837462 26.65119636 -58.1953125 24.27050781 C-57.3024202 23.36749435 -56.40952789 22.4644809 -55.48957825 21.53410339 C-54.64908432 20.70937027 -53.80859039 19.88463715 -52.94262695 19.03491211 C-52.20760452 18.30386765 -51.47258209 17.57282318 -50.71528625 16.81962585 C-48.06186273 14.93345866 -46.70933448 14.8006628 -43.51953125 15.25878906 C-41.29956055 16.91113281 -41.29956055 16.91113281 -39.09375 19.19628906 C-38.29775391 20.00839844 -37.50175781 20.82050781 -36.68164062 21.65722656 C-35.86501953 22.51574219 -35.04839844 23.37425781 -34.20703125 24.25878906 C-33.37107422 25.11730469 -32.53511719 25.97582031 -31.67382812 26.86035156 C-29.61073469 28.98239052 -27.56018559 31.11519934 -25.51953125 33.25878906 C-24.97425781 33.06542969 -24.42898438 32.87207031 -23.8671875 32.67285156 C-18.47572605 30.81118453 -13.11031399 29.3822324 -7.51953125 28.25878906 C-7.53000488 27.48164551 -7.54047852 26.70450195 -7.55126953 25.90380859 C-7.59273407 22.39716806 -7.61882703 18.89057901 -7.64453125 15.38378906 C-7.66128906 14.16046875 -7.67804688 12.93714844 -7.6953125 11.67675781 C-7.70175781 10.51015625 -7.70820313 9.34355469 -7.71484375 8.14160156 C-7.72531738 7.06281738 -7.73579102 5.9840332 -7.74658203 4.87255859 C-7.29983323 -0.2703367 -4.42284662 0.00690033 0 0 Z " fill="#141414" transform="translate(488.51953125,383.7412109375)"/>
<path d="M0 0 C1.04314362 -0.00563965 2.08628723 -0.0112793 3.16104126 -0.01708984 C4.30503387 -0.01304138 5.44902649 -0.00899292 6.62768555 -0.00482178 C7.8327475 -0.00832642 9.03780945 -0.01183105 10.27938843 -0.01544189 C13.58517984 -0.02274322 16.89072138 -0.02102181 20.19649887 -0.01468372 C23.65444019 -0.00962365 27.11237076 -0.0143152 30.5703125 -0.01745605 C36.37754231 -0.02109568 42.18472127 -0.01629671 47.99194336 -0.0067749 C54.70789191 0.00410967 61.42371904 0.00058409 68.13966465 -0.01042771 C73.90364147 -0.01950071 79.66758172 -0.02078581 85.43156338 -0.01555037 C88.87510099 -0.01243073 92.31858152 -0.01202115 95.76211548 -0.01862335 C99.6001661 -0.02546781 103.43808047 -0.01598382 107.27612305 -0.00482178 C108.99211197 -0.01089447 108.99211197 -0.01089447 110.74276733 -0.01708984 C111.78591095 -0.0114502 112.82905457 -0.00581055 113.90380859 0 C115.2654438 0.00113108 115.2654438 0.00113108 116.65458679 0.002285 C118.9519043 0.25396729 118.9519043 0.25396729 121.9519043 2.25396729 C122.34008789 5.01959229 122.34008789 5.01959229 122.3503418 8.50396729 C122.35420898 9.75177979 122.35807617 10.99959229 122.36206055 12.28521729 C122.3446582 14.24974854 122.3446582 14.24974854 122.3269043 16.25396729 C122.33850586 17.56365479 122.35010742 18.87334229 122.36206055 20.22271729 C122.35819336 21.47052979 122.35432617 22.71834229 122.3503418 24.00396729 C122.34695801 25.15381104 122.34357422 26.30365479 122.34008789 27.48834229 C122.2119873 28.40099854 122.08388672 29.31365479 121.9519043 30.25396729 C118.88419239 32.29910856 118.29622382 32.50224002 114.84765625 32.48101807 C114.02703201 32.480867 113.20640778 32.48071594 112.36091614 32.4805603 C111.0389045 32.46507645 111.0389045 32.46507645 109.69018555 32.44927979 C108.78439255 32.44644989 107.87859955 32.44362 106.94535828 32.44070435 C104.05157272 32.42950692 101.15809635 32.40440317 98.2644043 32.37896729 C96.30282022 32.36893692 94.3412313 32.35981117 92.37963867 32.35162354 C87.5702747 32.32956902 82.76114193 32.29504217 77.9519043 32.25396729 C77.95634552 33.32694061 77.96078674 34.39991394 77.96536255 35.50540161 C78.00584492 45.60004091 78.03585799 55.69466382 78.05552864 65.78936577 C78.06598135 70.97958627 78.08016758 76.16974143 78.1027832 81.35992432 C78.12445868 86.36547618 78.13646171 91.37096505 78.14165878 96.37656021 C78.14536409 98.28960284 78.15259926 100.20264188 78.16336441 102.11565781 C78.17780902 104.78797704 78.17988521 107.46003348 78.17895508 110.13238525 C78.18614563 110.92935822 78.19333618 111.72633118 78.20074463 112.54745483 C78.18000862 118.02586296 78.18000862 118.02586296 75.9519043 120.25396729 C73.10633852 120.44162224 70.35982711 120.50953505 67.5144043 120.48443604 C66.67852783 120.48397781 65.84265137 120.48351959 64.98144531 120.48304749 C63.21279482 120.4800242 61.44414701 120.47213563 59.67553711 120.45977783 C56.96287642 120.44154105 54.25055734 120.439268 51.5378418 120.43951416 C49.821693 120.43459823 48.10554653 120.42876959 46.3894043 120.42193604 C45.57479736 120.42082321 44.76019043 120.41971039 43.92089844 120.41856384 C38.18403777 120.37003402 38.18403777 120.37003402 35.9519043 119.25396729 C35.9519043 90.54396729 35.9519043 61.83396729 35.9519043 32.25396729 C22.0919043 32.25396729 8.2319043 32.25396729 -6.0480957 32.25396729 C-9.36190024 28.94016275 -8.34475431 24.72955302 -8.37036133 20.22271729 C-8.36713867 18.91302979 -8.36391602 17.60334229 -8.3605957 16.25396729 C-8.37670898 14.94427979 -8.39282227 13.63459229 -8.40942383 12.28521729 C-8.41006836 11.03740479 -8.41071289 9.78959229 -8.41137695 8.50396729 C-8.41435791 7.35412354 -8.41733887 6.20427979 -8.42041016 5.01959229 C-8.29754639 4.10693604 -8.17468262 3.19427979 -8.0480957 2.25396729 C-4.76222187 0.06338473 -3.81040851 0.00316521 0 0 Z " fill="#FBFBFB" transform="translate(455.048095703125,449.74603271484375)"/>
<path d="M0 0 C4.95 0 9.9 0 15 0 C15 4.29 15 8.58 15 13 C20.50122144 14.02815632 20.50122144 14.02815632 26 14 C28.67560293 12.0679011 30.33002248 9.82557377 32 7 C35.13010458 8.39192704 37.32336692 10.02642226 39.75 12.4375 C40.36359375 13.03433594 40.9771875 13.63117187 41.609375 14.24609375 C43 16 43 16 43 19 C41.33333333 20.66666667 39.66666667 22.33333333 38 24 C36.30862514 27.6243747 37.33624464 31.16496903 38 35 C42.29 35 46.58 35 51 35 C51 39.95 51 44.9 51 50 C45.06 50.495 45.06 50.495 39 51 C37.39161093 55.06827823 36.39537513 57.82797533 38 62 C40.45817955 64.79245093 40.45817955 64.79245093 43 67 C41.59155282 70.21524305 39.89655214 72.32183868 37.375 74.75 C36.74335937 75.36359375 36.11171875 75.9771875 35.4609375 76.609375 C34.97882813 77.06828125 34.49671875 77.5271875 34 78 C31.39496878 76.8080499 30.05187613 76.06260912 28.1875 73.8125 C26.01498407 71.59576746 26.01498407 71.59576746 22.4375 72.1875 C19.04557934 72.93506984 19.04557934 72.93506984 16 74 C15.505 79.94 15.505 79.94 15 86 C10.05 86 5.1 86 0 86 C0 82.04 0 78.08 0 74 C-1.65 73.67 -3.3 73.34 -5 73 C-6.03640625 72.62875 -6.03640625 72.62875 -7.09375 72.25 C-9.09731248 71.76877649 -9.09731248 71.76877649 -10.78125 73.25 C-11.3484375 73.8275 -11.915625 74.405 -12.5 75 C-14.21875 76.75 -14.21875 76.75 -16 78 C-19.50613702 77.81328264 -21.37490972 76.08403612 -23.8125 73.6875 C-24.43769531 73.09324219 -25.06289063 72.49898437 -25.70703125 71.88671875 C-27 70 -27 70 -26.86328125 67.91796875 C-26 66 -26 66 -23.375 63.625 C-20.63969059 61.21839068 -20.63969059 61.21839068 -21.125 58 C-21.558125 56.515 -21.558125 56.515 -22 55 C-22.33 53.35 -22.66 51.7 -23 50 C-26.96 50 -30.92 50 -35 50 C-35 45.05 -35 40.1 -35 35 C-31.04 35 -27.08 35 -23 35 C-22.67 33.35 -22.34 31.7 -22 30 C-21.67 29.21625 -21.34 28.4325 -21 27.625 C-20.72678292 24.94241949 -20.72678292 24.94241949 -22.49609375 23.12890625 C-24.27771995 21.34728005 -26.09502899 19.64844125 -28 18 C-27.06409496 16.8944811 -26.12620142 15.79064547 -25.1875 14.6875 C-24.66542969 14.07261719 -24.14335938 13.45773437 -23.60546875 12.82421875 C-22.1201317 11.13650001 -20.67545926 9.50006683 -19 8 C-17.125 8 -17.125 8 -15 9 C-14.195625 9.86625 -13.39125 10.7325 -12.5625 11.625 C-11.716875 12.40875 -10.87125 13.1925 -10 14 C-7.45286596 13.99077298 -7.45286596 13.99077298 -5 13 C-3.35 12.67 -1.7 12.34 0 12 C0 8.04 0 4.08 0 0 Z " fill="#F8F9F9" transform="translate(585,515)"/>
<path d="M0 0 C4.25922907 3.07060701 7.07191862 6.09564311 8.20703125 11.3359375 C8.59820201 17.24898391 7.18705505 20.91475743 3.3203125 25.375 C-0.09343517 28.64174418 -3.18533189 29.05297038 -7.75 29.3125 C-12.27938259 29.20699026 -14.83023086 27.92230212 -18.3125 24.9375 C-22.16214808 20.55686598 -22.82137235 16.27547061 -22.8046875 10.5859375 C-21.9355304 5.90904454 -18.81698131 2.97418855 -15.3125 -0.0625 C-10.71338643 -2.36205678 -4.73590823 -1.5190649 0 0 Z " fill="#151615" transform="translate(600.3125,544.0625)"/>
<path d="M0 0 C1.81765144 3.11976348 2.25119845 5.38347201 2.2561264 8.9776783 C2.2623585 9.98617683 2.26859059 10.99467535 2.27501154 12.03373444 C2.27171257 13.13974594 2.26841359 14.24575743 2.26501465 15.38528442 C2.26939592 16.5617931 2.27377719 17.73830177 2.27829123 18.95046222 C2.28849308 22.21721493 2.28977201 25.48383273 2.28735614 28.75059605 C2.286937 32.2736026 2.29803185 35.79657448 2.30781555 39.31956482 C2.32327944 45.42600807 2.3316822 51.53242819 2.33552551 57.63888931 C2.34127317 66.47871758 2.35986109 75.31848371 2.38196605 84.15828453 C2.41769981 98.51436703 2.44600481 112.87045304 2.46826172 127.2265625 C2.46959671 128.08596506 2.4709317 128.94536762 2.47230715 129.83081268 C2.48173182 135.92887483 2.49089343 142.02693737 2.5 148.125 C2.51039161 155.08040394 2.52091088 162.03580766 2.53173828 168.99121094 C2.53306902 169.84774773 2.53439977 170.70428453 2.53577083 171.58677699 C2.55822104 185.88162661 2.58842823 200.17644984 2.62413073 214.47127235 C2.64576747 223.2851308 2.66040847 232.09894817 2.66596949 240.91283171 C2.6702253 246.95727762 2.68148575 253.00168445 2.69819343 259.04610868 C2.70757367 262.53085374 2.71372196 266.01552576 2.71113014 269.50028419 C2.70996897 273.28454416 2.72100426 277.06858374 2.73498535 280.85281372 C2.73168638 281.94544088 2.7283874 283.03806805 2.72498846 284.16380513 C2.76468804 290.68779529 3.53132241 296.65221582 5 303 C5.34450114 304.99810662 5.68377223 306.99722415 6 309 C0.15695466 303.15695466 -0.45665318 292.49423106 -0.51632524 284.62704724 C-0.50467387 283.52097538 -0.4930225 282.41490352 -0.48101807 281.27531433 C-0.48443577 280.06364241 -0.48785347 278.8519705 -0.49137473 277.60358125 C-0.49677735 274.28052883 -0.48445853 270.95844241 -0.46426249 267.63550794 C-0.44684881 264.03720413 -0.45284393 260.43892558 -0.45587158 256.84059143 C-0.45796023 250.61962646 -0.44550245 244.39883043 -0.42292023 238.17790794 C-0.39029238 229.18373409 -0.37998223 220.1896412 -0.37496826 211.19541458 C-0.36623245 196.59987537 -0.33966358 182.00442602 -0.30175781 167.40893555 C-0.26499322 153.23804165 -0.23670328 139.06717224 -0.21972656 124.89624023 C-0.21867567 124.02147894 -0.21762477 123.14671765 -0.21654204 122.24544843 C-0.21132156 117.85664988 -0.2062668 113.46785116 -0.20129442 109.07905233 C-0.15988579 72.7193048 -0.08948429 36.35965942 0 0 Z " fill="#BBBCBB" transform="translate(318,366)"/>
<path d="M0 0 C1.32 0.33 2.64 0.66 4 1 C4.33 10.24 4.66 19.48 5 29 C4.34 29 3.68 29 3 29 C1.72414014 26.44828028 1.80733799 24.51405589 1.71875 21.66015625 C1.66267578 20.0659082 1.66267578 20.0659082 1.60546875 18.43945312 C1.57066406 17.32505859 1.53585937 16.21066406 1.5 15.0625 C1.43115248 12.86575411 1.35841247 10.66912579 1.28125 8.47265625 C1.23581055 7.00711304 1.23581055 7.00711304 1.18945312 5.51196289 C1.09313063 2.87275056 1.09313063 2.87275056 0 0 Z " fill="#EDEFF0" transform="translate(477,613)"/>
<path d="M0 0 C4.014818 0.37305831 5.99941361 2.59744707 8.75 5.375 C9.54921875 6.16648437 10.3484375 6.95796875 11.171875 7.7734375 C13 10 13 10 13 13 C9.8731209 11.61867539 7.80079608 10.02096237 5.4375 7.5625 C4.85871094 6.96566406 4.27992188 6.36882813 3.68359375 5.75390625 C3.12800781 5.17511719 2.57242188 4.59632813 2 4 C1.0022753 2.99772986 0.00304412 1.99694659 -1 1 C-0.67 0.67 -0.34 0.34 0 0 Z " fill="#ECEDED" transform="translate(559,607)"/>
<path d="M0 0 C0.57975586 0.23517334 1.15951172 0.47034668 1.75683594 0.71264648 C1.29535156 1.11354492 0.83386719 1.51444336 0.35839844 1.92749023 C-5.22891744 6.79706791 -10.74437811 11.74345672 -16.24316406 16.71264648 C-16.90316406 16.38264648 -17.56316406 16.05264648 -18.24316406 15.71264648 C-15.68024556 13.00501837 -13.08981203 10.32541268 -10.49316406 7.65014648 C-9.76355469 6.87864258 -9.03394531 6.10713867 -8.28222656 5.31225586 C-7.57324219 4.5871582 -6.86425781 3.86206055 -6.13378906 3.11499023 C-5.48442383 2.43944092 -4.83505859 1.7638916 -4.16601562 1.06787109 C-2.24316406 -0.28735352 -2.24316406 -0.28735352 0 0 Z " fill="#BDBDBE" transform="translate(604.2431640625,608.287353515625)"/>
<path d="M0 0 C4.66666667 4.66666667 9.33333333 9.33333333 14 14 C13.34 14.66 12.68 15.32 12 16 C9.98739086 14.0952092 7.99046064 12.17769837 6 10.25 C5.42765625 9.71117187 4.8553125 9.17234375 4.265625 8.6171875 C2.76625508 7.15351686 1.37572705 5.58044834 0 4 C0 2.68 0 1.36 0 0 Z " fill="#EAEBEC" transform="translate(396,580)"/>
<path d="M0 0 C9.57 0 19.14 0 29 0 C29 0.33 29 0.66 29 1 C28.23333008 1.01458252 27.46666016 1.02916504 26.67675781 1.04418945 C23.20066507 1.1186922 19.72553032 1.21534646 16.25 1.3125 C15.0434375 1.33505859 13.836875 1.35761719 12.59375 1.38085938 C11.43359375 1.41630859 10.2734375 1.45175781 9.078125 1.48828125 C8.00981445 1.51446533 6.94150391 1.54064941 5.84082031 1.56762695 C2.71897682 2.04277175 1.31298705 2.90416047 -1 5 C-0.67 3.35 -0.34 1.7 0 0 Z " fill="#3D4040" transform="translate(381,480)"/>
<path d="M0 0 C3.21524305 1.40844718 5.32183868 3.10344786 7.75 5.625 C8.67039062 6.57246094 8.67039062 6.57246094 9.609375 7.5390625 C10.29773438 8.26222656 10.29773438 8.26222656 11 9 C10.34 9.66 9.68 10.32 9 11 C1.33257403 5.03416856 1.33257403 5.03416856 0 0 Z " fill="#D8D9DA" transform="translate(402,451)"/>
<path d="M0 0 C4.2742558 1.5830577 6.26531794 4.50568404 9 8 C6 8 6 8 3.375 5.6875 C1 3 1 3 0 0 Z " fill="#D9DBDC" transform="translate(425,611)"/>
<path d="M0 0 C0.99 0.33 1.98 0.66 3 1 C2.45730469 1.47050781 1.91460938 1.94101562 1.35546875 2.42578125 C0.28232422 3.35970703 0.28232422 3.35970703 -0.8125 4.3125 C-1.52019531 4.92738281 -2.22789062 5.54226563 -2.95703125 6.17578125 C-4.70136739 7.73334335 -6.36778041 9.32658875 -8 11 C-8 8 -8 8 -6.25 5.95703125 C-5.5075 5.24933594 -4.765 4.54164063 -4 3.8125 C-2.88625 2.73935547 -2.88625 2.73935547 -1.75 1.64453125 C-1.1725 1.10183594 -0.595 0.55914063 0 0 Z " fill="#E7EAE9" transform="translate(566,523)"/>
<path d="M0 0 C2.16874252 0.50603992 3.99967627 0.99983813 6 2 C6 2.66 6 3.32 6 4 C7.65 4.33 9.3 4.66 11 5 C11 5.66 11 6.32 11 7 C6.00724943 5.72278474 3.42388092 3.82669043 0 0 Z " fill="#C1C3C2" transform="translate(338,692)"/>
<path d="M0 0 C4.6875 3.61328125 4.6875 3.61328125 6 5 C6 5.99 6 6.98 6 8 C2.00003714 6.66667905 1.16217663 4.5042173 -1 1 C-0.67 0.67 -0.34 0.34 0 0 Z " fill="#EFF2F2" transform="translate(433,619)"/>
<path d="M0 0 C2.31 1.98 4.62 3.96 7 6 C6.01 6.33 5.02 6.66 4 7 C2.35 5.35 0.7 3.7 -1 2 C-0.67 1.34 -0.34 0.68 0 0 Z " fill="#D5D6D6" transform="translate(572,618)"/>
<path d="M0 0 C0.66 0.33 1.32 0.66 2 1 C1.67 2.98 1.34 4.96 1 7 C0.01 7.33 -0.98 7.66 -2 8 C-1.125 2.25 -1.125 2.25 0 0 Z " fill="#EEEEEE" transform="translate(410,471)"/>
<path d="M0 0 C0.0825 0.61875 0.165 1.2375 0.25 1.875 C0.81258459 4.18437567 0.81258459 4.18437567 3.0625 5.25 C3.701875 5.4975 4.34125 5.745 5 6 C4.01 7.485 4.01 7.485 3 9 C2.34 8.67 1.68 8.34 1 8 C1 7.34 1 6.68 1 6 C0.34 6 -0.32 6 -1 6 C-0.67 4.02 -0.34 2.04 0 0 Z " fill="#EDEEEE" transform="translate(396,442)"/>
<path d="M0 0 C2.5 2.3125 2.5 2.3125 5 5 C5 5.99 5 6.98 5 8 C2.5 6.25 2.5 6.25 0 4 C0 2.68 0 1.36 0 0 Z " fill="#F0F1F2" transform="translate(396,580)"/>
</svg>
